<svg id="Layer_1" data-name="Layer 1" xmlns="http://www.w3.org/2000/svg" viewBox="0 0 220 236"><defs><style>.cls-1{fill:none}.cls-2{fill:#ffdd7e}.cls-3{fill:#8cb7c4}.cls-4{fill:#b9e1e0}.cls-5{fill:#e7f6fd}.cls-6{fill:#b04857}.cls-15,.cls-7{fill:#f06771}.cls-8{fill:#f8b0b5}.cls-9{fill:#dec4b4}.cls-10{fill:#f2b3d1}.cls-11{fill:#ffcc34}.cls-12{fill:#b6e3f8}.cls-13{fill:#676767}.cls-14{fill:#c0b9da}.cls-15{opacity:.8;isolation:isolate}.cls-16{fill:#e5e3ef}.cls-17{fill:#f6b547}.cls-18{fill:#2b2c2a}.cls-19{fill:#e5636a}.cls-20{fill:#f3f3f3}.cls-21{fill:#33322e}.cls-22{fill:#7a7775}</style></defs><title>Artboard 1</title><path class="cls-1" d="M-129 20h480v200h-480z"/><path class="cls-2" d="M81.8 151.1L54 123.4a11.36 11.36 0 0 0-8-3.3H22.3a2.29 2.29 0 0 0-1.6 3.9l27.2 27.2h33.9z"/><path class="cls-3" d="M101.2 174.4l-30.6 6.8L54.2 107l30.6-2.2a2.15 2.15 0 0 1 2.5 1.6l15.4 65.4a2 2 0 0 1-1.5 2.6z"/><path class="cls-4" d="M71.4 181L59 183.7a2.15 2.15 0 0 1-2.5-1.6l-15.4-70a2.15 2.15 0 0 1 1.6-2.5l12.4-2.7a2.15 2.15 0 0 1 2.5 1.6l15.4 70a2 2 0 0 1-1.6 2.5z"/><path class="cls-5" transform="rotate(-12.43 56.294 140.906)" d="M53.2 123.79h6.2v34.3h-6.2z"/><path class="cls-6" d="M82.9 178.9l38.2-2.5 6.9-2.5-34.2 1.8-10.9 3.2z"/><path class="cls-7" d="M128 173.9l-31.9 2.2a3.1 3.1 0 0 1-3.7-2.3l-13.7-60c-.4-1.7 0-3.4 1.7-3.8l32.5-2.1a3.1 3.1 0 0 1 3.7 2.3l13.7 60a3 3 0 0 1-2.3 3.7z"/><path class="cls-8" d="M95.5 176l-12.6 2.9a2 2 0 0 1-2.4-1.5l-14.1-62.1a2 2 0 0 1 1.5-2.4l12.6-2.9a2 2 0 0 1 2.4 1.5L97 173.6a1.92 1.92 0 0 1-1.5 2.4z"/><path class="cls-5" d="M85.2 121.8l-16.5 3.9-1-4.8 16.4-3.9 1.1 4.8zM96 168.9l-16.5 3.9-1.1-4.8 16.4-3.9 1.2 4.8zm16.4-49l2.4 10.6a1 1 0 0 1-.9 1.2l-18.2 1.2a1 1 0 0 1-1-.8l-2.4-10.5a1 1 0 0 1 .9-1.2l18.2-1.3a1.05 1.05 0 0 1 1 .8z"/><path class="cls-9" d="M119.7 162l5.4.8-2.7 3.3a.78.78 0 0 1-1.1-.1z"/><path class="cls-10" d="M130.2 129.1l-5.4-.8.3-2a2.47 2.47 0 0 1 2.8-2.1l.5.1a2.47 2.47 0 0 1 2.1 2.8z"/><path class="cls-11" transform="rotate(-81.55 124.94 145.976)" d="M108.28 143.23h33.3v5.5h-33.3z"/><path class="cls-12" transform="rotate(-81.55 127.485 128.689)" d="M125.58 125.94h3.8v5.5h-3.8z"/><path class="cls-13" d="M120.9 164.8l.5 1.1c.1.4.8.5 1.1.1l.8-.9z"/><path class="cls-9" d="M112 129l-5.4 1.1 1.4-4c.1-.4.8-.5 1.1-.2z"/><path class="cls-10" d="M113.5 163.5l5.4-1.1.4 2a2.48 2.48 0 0 1-1.9 2.9l-.5.1a2.48 2.48 0 0 1-2.9-1.9z"/><path class="cls-3" transform="rotate(-11.57 112.616 145.83)" d="M109.9 129.21h5.5v33.3h-5.5z"/><path class="cls-12" transform="rotate(-11.57 116.128 162.838)" d="M113.41 160.99h5.5v3.8h-5.5z"/><path class="cls-13" d="M110 126.8l-.8-.9a.72.72 0 0 0-1.1.2l-.4 1.1z"/><path class="cls-5" d="M132.8 195.3l-15.4-4.2a1.36 1.36 0 0 1-1-1.8l22-80.7a1.36 1.36 0 0 1 1.8-1l15.4 4.2a1.36 1.36 0 0 1 1 1.8l-22 80.7a1.36 1.36 0 0 1-1.8 1z"/><path class="cls-3" transform="rotate(-74.73 140.474 124.058)" d="M139.68 117.96h1.6v12.2h-1.6z"/><path class="cls-3" transform="rotate(-74.73 136.258 128.643)" d="M135.81 125.39h.9v6.5h-.9z"/><path class="cls-3" transform="rotate(-74.73 134.85 133.922)" d="M134.41 130.67h.9v6.5h-.9z"/><path class="cls-3" transform="rotate(-74.73 140.436 113.289)" d="M139.99 110.04h.9v6.5h-.9z"/><path class="cls-3" transform="rotate(-74.73 139.022 118.657)" d="M138.58 115.41h.9v6.5h-.9z"/><path class="cls-3" transform="rotate(-74.73 131.991 144.521)" d="M131.55 141.27h.9v6.5h-.9z"/><path class="cls-3" transform="rotate(-74.73 130.48 149.867)" d="M130.03 146.62h.9v6.5h-.9z"/><path class="cls-3" transform="rotate(-74.73 127.622 160.465)" d="M127.17 157.22h.9v6.5h-.9z"/><path class="cls-3" transform="rotate(-74.73 126.133 165.714)" d="M125.69 162.46h.9v6.5h-.9z"/><path class="cls-3" transform="rotate(-74.73 123.088 177.114)" d="M122.64 173.86h.9v6.5h-.9z"/><path class="cls-3" transform="rotate(-74.73 121.577 182.46)" d="M121.13 179.21h.9v6.5h-.9z"/><path class="cls-3" transform="rotate(-74.73 136.155 139.978)" d="M135.36 133.88h1.6v12.2h-1.6z"/><path class="cls-3" transform="rotate(-74.73 131.808 155.825)" d="M131.02 149.73h1.6v12.2h-1.6z"/><path class="cls-3" transform="rotate(-74.73 127.458 171.826)" d="M126.66 165.72h1.6v12.2h-1.6z"/><path class="cls-11" d="M77.5 220h82.8a6.81 6.81 0 0 0 6.8-6.8v-66.3H77.5a6.81 6.81 0 0 0-6.8 6.8v59.5a6.81 6.81 0 0 0 6.8 6.8z"/><path class="cls-11" d="M138.3 151.1l23.4-27.8a8.92 8.92 0 0 1 6.8-3.3h20.1c1.7 0 2.5 2.4 1.4 3.9l-23 27.2z"/><path class="cls-2" d="M50 220h91.9v-73.1H50a4.48 4.48 0 0 0-4.5 4.5v64A4.5 4.5 0 0 0 50 220z"/><path class="cls-14" d="M77 97.7a1.93 1.93 0 0 1-1-.3l-16-9.3a1.9 1.9 0 1 1 1.9-3.3l16 9.3a1.93 1.93 0 0 1 .7 2.6 1.78 1.78 0 0 1-1.6 1zm48.1-.4a1.76 1.76 0 0 1-1.5-.8 2 2 0 0 1 .4-2.7l13.2-9.7a1.93 1.93 0 0 1 2.3 3.1L126.3 97a2.66 2.66 0 0 1-1.2.3zm-24.3-10.7a1.9 1.9 0 0 1-1.9-1.9V69.1a1.9 1.9 0 0 1 1.9-1.9 2 2 0 0 1 1.9 1.9v15.5a1.92 1.92 0 0 1-1.9 2zM46.5 64.9a2.73 2.73 0 0 0 .1-3 2.82 2.82 0 0 0-3.2-1.3 2.76 2.76 0 0 0 .9-3.8 2.8 2.8 0 0 0-3.9-1L34 59.5c-.1 0-.1.1-.2.1l-3.3 1.9a11.7 11.7 0 0 0-.4-3.2 8.3 8.3 0 0 0-.6-2.1 4.18 4.18 0 0 0-.4-1 1.69 1.69 0 0 0-.2-.5l-.1-.2-.2-.3a2.62 2.62 0 0 0-3.7-1.2 3.14 3.14 0 0 0-1.2 4v.4a2 2 0 0 0 .1.7c0 .4.1.9.1 1.4a28 28 0 0 1 0 2.9v1.4a1.7 1.7 0 0 1-.1.7l-.1.7a8 8 0 0 1-.3 1.5v.3a5.12 5.12 0 0 0 .4 4l2.5 4.5-1.5 6.2a1.6 1.6 0 0 0 1.1 1.9l11.3 2.7a1.6 1.6 0 0 0 1.9-1.1l1.9-7.4 4.9-2.8a3.24 3.24 0 0 0 1.2-4.4l-.2-.4.1-.1a2.8 2.8 0 0 0 1-3.9 2.17 2.17 0 0 0-1.5-1.3z"/><path class="cls-15" d="M104.7 45.4q-1.8 5.1-6.9 5.1a6.32 6.32 0 0 1-5.2-2.4 10.09 10.09 0 0 1-2-6.5 14.58 14.58 0 0 1 2.7-9 8.5 8.5 0 0 1 7.1-3.6 5.29 5.29 0 0 1 3 .9 3.92 3.92 0 0 1 1.7 2.2 4.59 4.59 0 0 1 .1-1 2 2 0 0 1 2-1.8 2 2 0 0 1 2 2.2c-.6 7-.9 10.5-.9 10.7 0 3.2.8 4.7 2.4 4.7s2.7-.9 3.7-2.6a14.1 14.1 0 0 0 1.5-6.9 13.64 13.64 0 0 0-4-10.2c-2.7-2.6-6.4-4-11.1-4a15 15 0 0 0-11.3 4.7A16.62 16.62 0 0 0 85 39.8c0 4.7 1.4 8.5 4.3 11.4s6.8 4.4 11.6 4.4a22.51 22.51 0 0 0 7.6-1.1 1.72 1.72 0 0 1 2.2 1.6 1.71 1.71 0 0 1-1.2 1.6 28.6 28.6 0 0 1-9.3 1.3c-5.9 0-10.6-1.8-14.2-5.3s-5.4-8.1-5.4-13.8a19.75 19.75 0 0 1 5.7-14.5A21.47 21.47 0 0 1 101 20a20.35 20.35 0 0 1 13.8 4.8 16.05 16.05 0 0 1 5.4 12.6 14.55 14.55 0 0 1-2.9 9.3 9.05 9.05 0 0 1-7.2 3.7c-3.6.1-5.4-1.6-5.4-5zm-4.9-11.9a4.42 4.42 0 0 0-3.8 2.3 10.42 10.42 0 0 0-1.5 5.8 6.2 6.2 0 0 0 1 3.7 2.93 2.93 0 0 0 2.6 1.3 4.08 4.08 0 0 0 3.7-2.4 13.19 13.19 0 0 0 1.4-6.4c0-2.9-1.1-4.3-3.4-4.3z"/><path class="cls-16" d="M186.3 50.3c-12.5-5.5-27-1.8-32.4 8.2-3.2 5.9-2 12.4 1.2 18.4 2.4 4.5-3 10-3 10s7.4-1.6 9-1.9a6.27 6.27 0 0 1 3.8.6 14.17 14.17 0 0 0 1.8.8c12.5 5.5 27 1.8 32.4-8.2s-.4-22.5-12.8-27.9z"/><path class="cls-16" d="M165.3 69.1a3.18 3.18 0 1 1 3.8-2.4 3.11 3.11 0 0 1-3.8 2.4zm10.4 2.3a3.18 3.18 0 1 1 3.8-2.4 3 3 0 0 1-3.8 2.4zm10.4 2.4a3.18 3.18 0 1 1 3.8-2.4 3.19 3.19 0 0 1-3.8 2.4z"/><path class="cls-16" d="M186.3 50.3c-12.5-5.5-27-1.8-32.4 8.2-3.2 5.9-2 12.4 1.2 18.4 2.4 4.5-3 10-3 10s7.4-1.6 9-1.9a6.27 6.27 0 0 1 3.8.6 14.17 14.17 0 0 0 1.8.8c12.5 5.5 27 1.8 32.4-8.2s-.4-22.5-12.8-27.9z"/><path class="cls-14" d="M165.3 69.1a3.18 3.18 0 1 1 3.8-2.4 3.11 3.11 0 0 1-3.8 2.4zm10.4 2.3a3.18 3.18 0 1 1 3.8-2.4 3 3 0 0 1-3.8 2.4zm10.4 2.4a3.18 3.18 0 1 1 3.8-2.4 3.19 3.19 0 0 1-3.8 2.4z"/><circle class="cls-17" cx="66.8" cy="195.4" r="10.8"/><circle class="cls-18" cx="62.1" cy="194" r="1.7"/><circle class="cls-18" cx="69.8" cy="191.3" r="1.7"/><path class="cls-19" d="M60.7 199.7a7.64 7.64 0 0 0 8.8 2.8 7.52 7.52 0 0 0 4.9-7.7z"/><path class="cls-20" d="M74.4 196.2v-1.4l-13.8 4.9a8.71 8.71 0 0 0 .9 1.1z"/><path class="cls-21" d="M62.1 198.2l-.6.2a4.69 4.69 0 0 1-5.9-2.8l-.5-1.5 9.3-3.3.5 1.5a4.56 4.56 0 0 1-2.8 5.9zm10.9-3.9l-.6.2a4.69 4.69 0 0 1-5.9-2.8l-.5-1.5 9.3-3.3.5 1.5a4.56 4.56 0 0 1-2.8 5.9z"/><path class="cls-22" d="M74.9 193a4.17 4.17 0 0 0 .9-1.6l-5.5-2.7-2.4.8z"/></svg>